<?xml version="1.0" encoding="UTF-8" standalone="no"?>
<!-- Created with Inkscape (http://www.inkscape.org/) -->

<svg
   xmlns:dc="http://purl.org/dc/elements/1.1/"
   xmlns:cc="http://creativecommons.org/ns#"
   xmlns:rdf="http://www.w3.org/1999/02/22-rdf-syntax-ns#"
   xmlns:svg="http://www.w3.org/2000/svg"
   xmlns="http://www.w3.org/2000/svg"
   xmlns:sodipodi="http://sodipodi.sourceforge.net/DTD/sodipodi-0.dtd"
   xmlns:inkscape="http://www.inkscape.org/namespaces/inkscape"
   width="30"
   height="30"
   id="svg2"
   version="1.1"
   inkscape:version="0.48.5 r10040"
   sodipodi:docname="mochila.svg"
   inkscape:export-filename="/home/vg/Learning/umsa/inf281/evaluation/public/sauce/mochila.png"
   inkscape:export-xdpi="90"
   inkscape:export-ydpi="90">
  <defs
     id="defs4" />
  <sodipodi:namedview
     id="base"
     pagecolor="#ffffff"
     bordercolor="#666666"
     borderopacity="1.0"
     inkscape:pageopacity="0.0"
     inkscape:pageshadow="2"
     inkscape:zoom="8"
     inkscape:cx="19.84368"
     inkscape:cy="14.988784"
     inkscape:document-units="px"
     inkscape:current-layer="layer1"
     showgrid="false"
     showborder="true"
     inkscape:window-width="1366"
     inkscape:window-height="724"
     inkscape:window-x="0"
     inkscape:window-y="-5"
     inkscape:window-maximized="1"
     fit-margin-top="0"
     fit-margin-left="0"
     fit-margin-right="0"
     fit-margin-bottom="0" />
  <metadata
     id="metadata7">
    <rdf:RDF>
      <cc:Work
         rdf:about="">
        <dc:format>image/svg+xml</dc:format>
        <dc:type
           rdf:resource="http://purl.org/dc/dcmitype/StillImage" />
        <dc:title></dc:title>
      </cc:Work>
    </rdf:RDF>
  </metadata>
  <g
     inkscape:label="Layer 1"
     inkscape:groupmode="layer"
     id="layer1"
     transform="translate(91.494982,-56.610454)">
    <path
       sodipodi:type="arc"
       style="color:#000000;fill:#000000;fill-opacity:1;fill-rule:nonzero;stroke:#000000;stroke-width:6.03785849;stroke-linecap:butt;stroke-linejoin:bevel;stroke-miterlimit:4;stroke-opacity:1;stroke-dasharray:none;marker:none;visibility:visible;display:inline;overflow:visible;enable-background:accumulate"
       id="path3927"
       sodipodi:cx="65.672539"
       sodipodi:cy="69.405518"
       sodipodi:rx="29.786873"
       sodipodi:ry="12.109203"
       d="m 95.459412,69.405518 a 29.786873,12.109203 0 1 1 -59.573746,0 29.786873,12.109203 0 1 1 59.573746,0 z"
       transform="matrix(0.3465846,0,0,0.31658103,-96.024757,53.923751)" />
    <g
       id="g3775"
       transform="matrix(0.13318704,0,0,0.19640955,-69.928342,54.948862)">
      <path
         sodipodi:nodetypes="sssssszs"
         inkscape:connector-curvature="0"
         id="path3772"
         d="m -88.079219,39.972311 c -2.332943,0.62511 -4.679141,1.318442 -7.277921,1.318442 -6.70631,0 -12.14286,-5.436542 -12.14286,-12.142857 0,-3.49147 1.47357,-6.638764 3.83273,-8.853902 2.07154,-1.945076 4.82588,-3.171422 7.864944,-3.280947 0.147737,-0.0053 23.082791,2.163248 23.215552,2.163248 5.973855,0 10.816622,4.842766 10.816622,9.659146 0,4.81638 -22.680042,10.164475 -26.309067,11.13687 z"
         style="color:#000000;fill:#f02c2c;fill-opacity:1;fill-rule:nonzero;stroke:none;stroke-width:1;marker:none;visibility:visible;display:inline;overflow:visible;enable-background:accumulate"
         transform="matrix(2.5588234,0,0,2.5588234,201.58567,-25.731016)" />
      <path
         transform="matrix(2.5588234,0,0,2.5588234,201.58567,-25.731016)"
         style="color:#000000;fill:#bc0d0d;fill-opacity:1;fill-rule:nonzero;stroke:none;stroke-width:1;marker:none;visibility:visible;display:inline;overflow:visible;enable-background:accumulate"
         d="m -79.892443,28.757091 c 0,6.706315 -8.758382,12.533662 -15.464697,12.533662 -6.70631,0 -14.01833,-5.436542 -14.01833,-12.142857 0,-6.706315 7.31202,-12.142858 14.01833,-12.142858 6.706315,0 15.464697,5.045738 15.464697,11.752053 z"
         id="path3000"
         inkscape:connector-curvature="0"
         sodipodi:nodetypes="sssss" />
      <path
         transform="matrix(1.8529411,0,0,1.8529411,134.27475,-5.1560313)"
         style="color:#000000;fill:#f02c2c;fill-opacity:1;fill-rule:nonzero;stroke:none;stroke-width:1;marker:none;visibility:visible;display:inline;overflow:visible;enable-background:accumulate"
         d="m -83.214282,29.147896 c 0,6.706315 -5.436543,12.142857 -12.142858,12.142857 -6.70631,0 -14.89129,-5.436542 -14.89129,-12.142857 0,-6.706315 10.16245,-8.904763 14.89129,-8.904763 4.728845,0 12.142858,2.198448 12.142858,8.904763 z"
         id="path3002"
         inkscape:connector-curvature="0"
         sodipodi:nodetypes="sssss" />
      <path
         transform="translate(52.940721,19.705408)"
         style="color:#000000;fill:#bc0d0d;fill-opacity:1;fill-rule:nonzero;stroke:none;stroke-width:1;marker:none;visibility:visible;display:inline;overflow:visible;enable-background:accumulate"
         d="m -87.042088,29.147896 c 0,6.706315 -7.219234,7.142857 -13.695772,7.142857 -6.47653,0 -12.20968,-0.436542 -12.20968,-7.142857 0,-6.706315 12.86156,-12.142858 17.590402,-12.142858 4.728845,0 8.31505,5.436543 8.31505,12.142858 z"
         id="path2998"
         inkscape:connector-curvature="0"
         sodipodi:nodetypes="sssss" />
    </g>
    <path
       style="color:#000000;fill:#a2aa20;fill-opacity:1;fill-rule:nonzero;stroke:none;stroke-width:1;marker:none;visibility:visible;display:inline;overflow:visible;enable-background:accumulate"
       d="m -68.502633,64.388021 c -1.352628,-0.0085 -2.667736,0.205932 -3.43789,0.612088 -1.540309,0.812311 -2.906529,2.174313 -0.623323,4.259865 0.461373,0.42143 0.961542,0.691384 1.477545,0.847797 -1.39469,1.179627 -2.331963,5.321415 -0.191457,7.276619 2.283206,2.085551 6.911982,1.044226 8.560437,0.174881 1.648455,-0.869347 0.957473,-8.150367 -0.853229,-9.105276 -0.03791,-0.01999 -0.07784,-0.03924 -0.116541,-0.05703 0.89463,-1.046827 0.371803,-2.481349 -1.169548,-3.29421 -0.905351,-0.477455 -2.293367,-0.706238 -3.645995,-0.714736 z"
       id="path2989"
       inkscape:connector-curvature="0"
       sodipodi:nodetypes="ssscssscss" />
    <path
       sodipodi:nodetypes="zsssz"
       inkscape:connector-curvature="0"
       id="path2994"
       d="m -70.543232,64.796687 c 1.239969,-0.653922 4.246701,-0.683952 5.70434,0.08476 1.457639,0.768714 1.786532,2.608172 0.459504,3.308006 -1.327031,0.699835 -3.904621,1.993691 -5.742633,0.314793 -1.838011,-1.678896 -1.66118,-3.053641 -0.421211,-3.707562 z"
       style="color:#000000;fill:#e7f23d;fill-opacity:1;fill-rule:nonzero;stroke:none;stroke-width:1;marker:none;visibility:visible;display:inline;overflow:visible;enable-background:accumulate" />
    <path
       style="color:#000000;fill:#e7f23d;fill-opacity:1;fill-rule:nonzero;stroke:none;stroke-width:1;marker:none;visibility:visible;display:inline;overflow:visible;enable-background:accumulate"
       d="m -68.416197,70.216876 c 1.250717,-0.65959 3.472412,-1.959968 4.942685,-1.184589 1.470276,0.775377 2.033761,6.688001 0.695229,7.393902 -1.338532,0.705902 -4.170208,1.55233 -6.024152,-0.14112 -1.853943,-1.69345 -0.864478,-5.408603 0.386238,-6.068193 z"
       id="path2996"
       inkscape:connector-curvature="0"
       sodipodi:nodetypes="zsssz" />
    <path
       inkscape:connector-curvature="0"
       id="path3919"
       d="m -90.946895,80.376632 c 1.363994,-0.465943 2.594059,0.414392 3.865046,1.399647 -1.271407,0.985616 -2.50057,1.865753 -3.865046,1.399644 l 2.472511,2.258468 c 0.0033,-1.633104 0.907079,-2.442281 1.656812,-3.393504 1.0258,1.112879 1.897982,2.196199 1.40778,3.393505 l 2.47251,-2.258468 c -1.68967,-0.0029 -2.573935,-0.740496 -3.544863,-1.399645 0.970397,-0.659056 1.856273,-1.396771 3.544863,-1.399647 l -2.472509,-2.258468 c 0.490129,1.19713 -0.382002,2.280652 -1.407781,3.393504 -0.749575,-0.950573 -1.653479,-1.761353 -1.656812,-3.393504 l -2.472511,2.258468 z"
       style="color:#000000;fill:#000000;fill-opacity:1;fill-rule:nonzero;stroke:#000000;stroke-width:0;stroke-linecap:butt;stroke-linejoin:bevel;stroke-miterlimit:4;stroke-opacity:1;stroke-dasharray:none;marker:none;visibility:visible;display:inline;overflow:visible;enable-background:accumulate" />
    <path
       style="color:#000000;fill:#00ff00;fill-opacity:1;fill-rule:nonzero;stroke:#008000;stroke-width:0;stroke-linecap:butt;stroke-linejoin:bevel;stroke-miterlimit:4;stroke-opacity:1;stroke-dasharray:none;marker:none;visibility:visible;display:inline;overflow:visible;enable-background:accumulate"
       d="m -89.331097,81.168084 c 1.363994,-0.465943 2.594059,0.414393 3.865045,1.399647 -1.271406,0.985616 -2.500569,1.865754 -3.865045,1.399646 l 2.472511,2.258466 c 0.0033,-1.633104 0.907078,-2.44228 1.656811,-3.393502 1.025799,1.112878 1.897982,2.196197 1.407779,3.393503 l 2.472512,-2.258467 c -1.68967,-0.0029 -2.573936,-0.740496 -3.544863,-1.399646 0.970397,-0.659055 1.856271,-1.39677 3.544863,-1.399647 l -2.47251,-2.258466 c 0.49013,1.19713 -0.382001,2.280651 -1.407781,3.393503 -0.749575,-0.950574 -1.653479,-1.761354 -1.656811,-3.393503 l -2.472511,2.258466 z"
       id="path3909"
       inkscape:connector-curvature="0" />
    <path
       style="color:#000000;fill:#6f7419;fill-opacity:1;fill-rule:nonzero;stroke:none;stroke-width:0.50000000000000000;marker:none;visibility:visible;display:inline;overflow:visible;enable-background:accumulate;stroke-opacity:1;stroke-miterlimit:4;stroke-dasharray:none"
       d="M 18.8125 1.78125 C 18.121829 1.771224 17.167635 1.8521175 16.59375 1.875 C 17.074907 2.026997 17.392928 2.061723 17.625 2.125 C 17.857073 2.18827 17.810922 2.113879 18.3125 2.125 C 18.843039 2.13671 19.165076 2.321175 19.28125 2.375 C 19.715521 2.576202 20.312408 3.576118 20.46875 3.96875 C 20.761322 4.7035039 20.600455 5.7561949 20.40625 6.8125 C 18.653237 7.0908552 17.195837 8.164442 16.15625 9.75 C 15.949642 10.065115 15.884455 10.440434 15.90625 10.84375 C 15.432076 11.531113 14.93407 12.306255 14.375 13.21875 C 13.602137 14.48019 10.918479 16.714365 10.4375 17.90625 C 9.956522 19.098136 9.64657 20.165239 9.75 21.15625 C 9.9969941 23.522803 13.874439 24.935299 16.96875 22.0625 C 18.774317 22.464106 21.399378 22.34375 22.59375 22.34375 C 27.417574 22.34375 29.008645 21.563555 29.28125 20.34375 C 29.145918 20.627905 28.987307 20.828832 28.78125 20.9375 C 27.132795 21.806845 22.501956 22.866801 20.21875 20.78125 C 18.078244 18.826046 19.01156 14.679627 20.40625 13.5 C 19.890247 13.343587 19.398873 13.07768 18.9375 12.65625 C 16.654294 10.570698 18.022191 9.187311 19.5625 8.375 C 20.17017 8.054533 21.119409 7.8741008 22.15625 7.8125 C 22.175902 7.8091046 22.198904 7.8157547 22.21875 7.8125 C 22.344439 7.7918873 22.492567 7.7961199 22.625 7.78125 C 23.048869 7.8671116 23.417113 8.0425555 23.75 8.3125 C 24.228453 8.700488 24.620982 9.267388 24.875 9.875 C 25.129017 10.482612 25.236669 11.145143 25.21875 11.6875 C 25.20083 12.229858 25.029985 12.611139 24.84375 12.78125 C 24.342024 13.239542 24.075762 13.779684 24.125 14.28125 C 24.17423 14.782815 24.546667 15.204105 25.03125 15.40625 C 26.000417 15.810541 27.383745 15.473294 28.53125 14.25 L 27.71875 13.625 C 26.786487 14.618838 25.8648 14.665214 25.46875 14.5 C 25.270724 14.41739 25.201418 14.329284 25.1875 14.1875 C 25.17358 14.045714 25.245299 13.787031 25.59375 13.46875 C 26.080976 13.023703 26.258364 12.380143 26.28125 11.6875 C 26.30414 10.994856 26.146942 10.256488 25.84375 9.53125 C 25.570377 8.8773384 25.172132 8.2482242 24.625 7.75 C 25.397334 7.8286181 26.131308 8.0044127 26.65625 8.28125 C 27.006107 8.4657536 27.287481 8.6914425 27.5 8.96875 C 27.231681 8.2975362 26.753165 7.7524831 25.84375 7.375 C 26.068297 6.2400368 26.948039 4.9947466 26.40625 4.09375 C 26.133101 3.639502 25.184549 2.803793 24.5625 2.5 C 24.406989 2.42405 24.245001 2.341702 24.0625 2.28125 C 23.514997 2.099892 22.713496 2.59751 21.90625 2.53125 C 21.763856 2.51969 21.622623 2.578313 21.53125 2.65625 C 21.969882 2.869266 22.675021 2.858381 23.1875 2.78125 C 23.699979 2.70412 23.819457 2.866041 24.09375 3 C 24.551884 3.223741 25.414773 3.962893 25.625 4.3125 C 26.014378 4.9600378 25.334104 6.055372 25.0625 7.09375 C 24.466032 6.939322 23.682994 6.8627951 22.8125 6.8125 C 22.549688 6.7592016 22.286904 6.7434893 22 6.75 L 22 6.78125 C 21.759408 6.7756283 21.573507 6.75 21.3125 6.75 C 21.301686 6.75 21.292044 6.7499425 21.28125 6.75 C 21.470213 5.7307693 21.662888 4.6612175 21.3125 3.78125 C 21.116327 3.28859 20.628671 2.35377 20 2.0625 C 19.842832 1.98968 19.684542 1.896346 19.5 1.84375 C 19.46541 1.83385 19.413549 1.85186 19.375 1.84375 C 19.230707 1.8133885 19.042724 1.784592 18.8125 1.78125 z M 16.4375 13.46875 C 16.519465 13.977186 16.556933 14.479814 16.40625 14.9375 C 15.707459 17.060012 13.71888 17.943268 15.1875 21.0625 C 15.196887 21.082438 15.208005 21.105659 15.21875 21.125 C 13.251187 22.697897 11.982532 20.757043 11.96875 20.625 C 11.92106 20.16803 11.882811 19.596046 12.3125 18.53125 C 12.742193 17.466452 15.359965 15.29141 16.09375 14.09375 C 16.223574 13.881856 16.326257 13.680262 16.4375 13.46875 z "
       transform="translate(-91.494982,56.610454)"
       id="path2991" />
  </g>
</svg>
