<?xml version="1.0" encoding="UTF-8" standalone="no"?>
<!-- Created with Inkscape (http://www.inkscape.org/) -->

<svg
   xmlns:osb="http://www.openswatchbook.org/uri/2009/osb"
   xmlns:dc="http://purl.org/dc/elements/1.1/"
   xmlns:cc="http://creativecommons.org/ns#"
   xmlns:rdf="http://www.w3.org/1999/02/22-rdf-syntax-ns#"
   xmlns:svg="http://www.w3.org/2000/svg"
   xmlns="http://www.w3.org/2000/svg"
   xmlns:sodipodi="http://sodipodi.sourceforge.net/DTD/sodipodi-0.dtd"
   xmlns:inkscape="http://www.inkscape.org/namespaces/inkscape"
   width="30"
   height="30"
   id="svg3901"
   version="1.1"
   inkscape:version="0.48.5 r10040"
   sodipodi:docname="analize.svg"
   inkscape:export-filename="/home/vg/Learning/umsa/inf281/evaluation/public/img/analize.png"
   inkscape:export-xdpi="90"
   inkscape:export-ydpi="90">
  <defs
     id="defs3903">
    <linearGradient
       osb:paint="solid"
       id="linearGradient5531">
      <stop
         id="stop5533"
         offset="0"
         style="stop-color:#e29738;stop-opacity:1;" />
    </linearGradient>
    <filter
       inkscape:collect="always"
       id="filter8364">
      <feGaussianBlur
         inkscape:collect="always"
         stdDeviation="1.281242"
         id="feGaussianBlur8366" />
    </filter>
    <filter
       inkscape:collect="always"
       id="filter3971">
      <feGaussianBlur
         inkscape:collect="always"
         stdDeviation="1.0260908"
         id="feGaussianBlur3973" />
    </filter>
  </defs>
  <sodipodi:namedview
     id="base"
     pagecolor="#ffffff"
     bordercolor="#666666"
     borderopacity="1.0"
     inkscape:pageopacity="0.0"
     inkscape:pageshadow="2"
     inkscape:zoom="8"
     inkscape:cx="-3.4060252"
     inkscape:cy="-0.43549058"
     inkscape:document-units="px"
     inkscape:current-layer="layer1"
     showgrid="false"
     inkscape:window-width="1366"
     inkscape:window-height="724"
     inkscape:window-x="0"
     inkscape:window-y="-5"
     inkscape:window-maximized="1" />
  <metadata
     id="metadata3906">
    <rdf:RDF>
      <cc:Work
         rdf:about="">
        <dc:format>image/svg+xml</dc:format>
        <dc:type
           rdf:resource="http://purl.org/dc/dcmitype/StillImage" />
        <dc:title />
      </cc:Work>
    </rdf:RDF>
  </metadata>
  <g
     inkscape:label="Layer 1"
     inkscape:groupmode="layer"
     id="layer1"
     transform="translate(0,-1022.3622)">
    <path
       id="path3945"
       transform="translate(0,1022.3622)"
       d="M 14.9375 0.34375 A 0.50005 0.50005 0 0 0 14.5 0.875 L 14.5 2.0625 C 13.753138 2.0992435 13.020309 2.1950703 12.3125 2.34375 L 12.3125 3.3125 C 13.022331 3.1490346 13.751141 3.0640842 14.5 3.03125 L 14.5 5.0625 C 14.022475 5.096298 13.554059 5.1603787 13.09375 5.25 L 13.09375 6.21875 C 13.550046 6.1201103 14.021354 6.0621953 14.5 6.03125 L 14.5 8.1875 C 11.124141 8.4367659 8.4367618 11.124193 8.1875 14.5 L 6.03125 14.5 C 6.0621953 14.021354 6.1201105 13.550043 6.21875 13.09375 L 5.25 13.09375 C 5.1603799 13.554054 5.0962984 14.022475 5.0625 14.5 L 3.03125 14.5 C 3.0640844 13.751142 3.1490351 13.022331 3.3125 12.3125 L 2.34375 12.3125 C 2.1950704 13.020306 2.0992436 13.753139 2.0625 14.5 L 0.875 14.5 A 0.50005 0.50005 0 0 0 0.71875 14.5 A 0.50606671 0.50606671 0 1 0 0.875 15.5 L 2.0625 15.5 C 2.0992436 16.246861 2.1950704 16.979694 2.34375 17.6875 L 3.3125 17.6875 C 3.1490351 16.977669 3.0640844 16.248858 3.03125 15.5 L 5.0625 15.5 C 5.0962984 15.977525 5.1603799 16.445941 5.25 16.90625 L 6.21875 16.90625 C 6.1201105 16.44995 6.0621953 15.978646 6.03125 15.5 L 8.1875 15.5 C 8.4367618 18.875882 11.124141 21.563242 14.5 21.8125 L 14.5 23.96875 C 14.021354 23.937805 13.550046 23.87989 13.09375 23.78125 L 13.09375 24.75 C 13.554059 24.839619 14.022475 24.903701 14.5 24.9375 L 14.5 26.96875 C 13.751141 26.935916 13.022331 26.850965 12.3125 26.6875 L 12.3125 27.65625 C 13.020309 27.80493 13.753138 27.900756 14.5 27.9375 L 14.5 29.125 A 0.50005 0.50005 0 1 0 15.5 29.125 L 15.5 27.9375 C 16.246862 27.900756 16.979691 27.80493 17.6875 27.65625 L 17.6875 26.6875 C 16.977669 26.850965 16.248859 26.935916 15.5 26.96875 L 15.5 24.9375 C 15.977525 24.903701 16.445941 24.839619 16.90625 24.75 L 16.90625 23.78125 C 16.449954 23.87989 15.978646 23.937805 15.5 23.96875 L 15.5 21.8125 C 18.875859 21.563242 21.563238 18.875882 21.8125 15.5 L 23.96875 15.5 C 23.937805 15.978646 23.87989 16.44995 23.78125 16.90625 L 24.75 16.90625 C 24.83962 16.445941 24.903702 15.977525 24.9375 15.5 L 26.96875 15.5 C 26.935916 16.248858 26.850965 16.977669 26.6875 17.6875 L 27.65625 17.6875 C 27.80493 16.979694 27.900756 16.246861 27.9375 15.5 L 29.125 15.5 A 0.50005 0.50005 0 1 0 29.125 14.5 L 27.9375 14.5 C 27.900756 13.753139 27.80493 13.020306 27.65625 12.3125 L 26.6875 12.3125 C 26.850965 13.022331 26.935916 13.751142 26.96875 14.5 L 24.9375 14.5 C 24.903702 14.022475 24.83962 13.554054 24.75 13.09375 L 23.78125 13.09375 C 23.87989 13.550043 23.937805 14.021354 23.96875 14.5 L 21.8125 14.5 C 21.563238 11.124193 18.875859 8.4367659 15.5 8.1875 L 15.5 6.03125 C 15.978646 6.0621953 16.449954 6.1201103 16.90625 6.21875 L 16.90625 5.25 C 16.445941 5.1603787 15.977525 5.096298 15.5 5.0625 L 15.5 3.03125 C 16.248859 3.0640842 16.977669 3.1490346 17.6875 3.3125 L 17.6875 2.34375 C 16.979691 2.1950703 16.246862 2.0992435 15.5 2.0625 L 15.5 0.875 A 0.50005 0.50005 0 0 0 14.9375 0.34375 z M 14.40625 9.15625 C 14.437335 9.1530933 14.468773 9.1589199 14.5 9.15625 L 14.5 12.0625 C 13.254561 12.278005 12.278003 13.254551 12.0625 14.5 L 9.15625 14.5 C 9.3963142 11.692375 11.611317 9.4400777 14.40625 9.15625 z M 15.5 9.15625 C 18.338877 9.3989804 20.601016 11.661149 20.84375 14.5 L 17.9375 14.5 C 17.721997 13.254551 16.745439 12.278005 15.5 12.0625 L 15.5 9.15625 z M 14.5 13.0625 L 14.5 14.5 L 13.0625 14.5 C 13.243296 13.792765 13.792738 13.24329 14.5 13.0625 z M 15.5 13.0625 C 16.207262 13.24329 16.756704 13.792765 16.9375 14.5 L 15.5 14.5 L 15.5 13.0625 z M 9.15625 15.5 L 12.0625 15.5 C 12.278003 16.745449 13.254561 17.721995 14.5 17.9375 L 14.5 20.84375 C 11.661123 20.601019 9.3989842 18.338931 9.15625 15.5 z M 13.0625 15.5 L 14.5 15.5 L 14.5 16.9375 C 13.792738 16.756708 13.243296 16.207284 13.0625 15.5 z M 15.5 15.5 L 16.9375 15.5 C 16.756704 16.207284 16.207262 16.756708 15.5 16.9375 L 15.5 15.5 z M 17.9375 15.5 L 20.84375 15.5 C 20.601016 18.338931 18.338877 20.601019 15.5 20.84375 L 15.5 17.9375 C 16.745439 17.721995 17.721997 16.745449 17.9375 15.5 z "
       style="font-size:medium;font-style:normal;font-variant:normal;font-weight:normal;font-stretch:normal;text-indent:0;text-align:start;text-decoration:none;line-height:normal;letter-spacing:normal;word-spacing:normal;text-transform:none;direction:ltr;block-progression:tb;writing-mode:lr-tb;text-anchor:start;baseline-shift:baseline;color:#000000;fill:#ffffff;fill-opacity:1;fill-rule:nonzero;stroke:#ffffff;stroke-width:1;marker:none;visibility:visible;display:inline;overflow:visible;enable-background:accumulate;font-family:Sans;-inkscape-font-specification:Sans;filter:url(#filter3971)" />
    <path
       style="font-size:medium;font-style:normal;font-variant:normal;font-weight:normal;font-stretch:normal;text-indent:0;text-align:start;text-decoration:none;line-height:normal;letter-spacing:normal;word-spacing:normal;text-transform:none;direction:ltr;block-progression:tb;writing-mode:lr-tb;text-anchor:start;baseline-shift:baseline;color:#000000;fill:#000000;fill-opacity:1;fill-rule:nonzero;stroke:#00ff00;stroke-width:0.10000000000000001;marker:none;visibility:visible;display:inline;overflow:visible;enable-background:accumulate;font-family:Sans;-inkscape-font-specification:Sans;stroke-miterlimit:4;stroke-dasharray:none"
       d="M 14.9375 0.34375 A 0.50005 0.50005 0 0 0 14.5 0.875 L 14.5 2.0625 C 13.753138 2.0992435 13.020309 2.1950703 12.3125 2.34375 L 12.3125 3.3125 C 13.022331 3.1490346 13.751141 3.0640842 14.5 3.03125 L 14.5 5.0625 C 14.022475 5.096298 13.554059 5.1603787 13.09375 5.25 L 13.09375 6.21875 C 13.550046 6.1201103 14.021354 6.0621953 14.5 6.03125 L 14.5 8.1875 C 11.124141 8.4367659 8.4367618 11.124193 8.1875 14.5 L 6.03125 14.5 C 6.0621953 14.021354 6.1201105 13.550043 6.21875 13.09375 L 5.25 13.09375 C 5.1603799 13.554054 5.0962984 14.022475 5.0625 14.5 L 3.03125 14.5 C 3.0640844 13.751142 3.1490351 13.022331 3.3125 12.3125 L 2.34375 12.3125 C 2.1950704 13.020306 2.0992436 13.753139 2.0625 14.5 L 0.875 14.5 A 0.50005 0.50005 0 0 0 0.71875 14.5 A 0.50606671 0.50606671 0 1 0 0.875 15.5 L 2.0625 15.5 C 2.0992436 16.246861 2.1950704 16.979694 2.34375 17.6875 L 3.3125 17.6875 C 3.1490351 16.977669 3.0640844 16.248858 3.03125 15.5 L 5.0625 15.5 C 5.0962984 15.977525 5.1603799 16.445941 5.25 16.90625 L 6.21875 16.90625 C 6.1201105 16.44995 6.0621953 15.978646 6.03125 15.5 L 8.1875 15.5 C 8.4367618 18.875882 11.124141 21.563242 14.5 21.8125 L 14.5 23.96875 C 14.021354 23.937805 13.550046 23.87989 13.09375 23.78125 L 13.09375 24.75 C 13.554059 24.839619 14.022475 24.903701 14.5 24.9375 L 14.5 26.96875 C 13.751141 26.935916 13.022331 26.850965 12.3125 26.6875 L 12.3125 27.65625 C 13.020309 27.80493 13.753138 27.900756 14.5 27.9375 L 14.5 29.125 A 0.50005 0.50005 0 1 0 15.5 29.125 L 15.5 27.9375 C 16.246862 27.900756 16.979691 27.80493 17.6875 27.65625 L 17.6875 26.6875 C 16.977669 26.850965 16.248859 26.935916 15.5 26.96875 L 15.5 24.9375 C 15.977525 24.903701 16.445941 24.839619 16.90625 24.75 L 16.90625 23.78125 C 16.449954 23.87989 15.978646 23.937805 15.5 23.96875 L 15.5 21.8125 C 18.875859 21.563242 21.563238 18.875882 21.8125 15.5 L 23.96875 15.5 C 23.937805 15.978646 23.87989 16.44995 23.78125 16.90625 L 24.75 16.90625 C 24.83962 16.445941 24.903702 15.977525 24.9375 15.5 L 26.96875 15.5 C 26.935916 16.248858 26.850965 16.977669 26.6875 17.6875 L 27.65625 17.6875 C 27.80493 16.979694 27.900756 16.246861 27.9375 15.5 L 29.125 15.5 A 0.50005 0.50005 0 1 0 29.125 14.5 L 27.9375 14.5 C 27.900756 13.753139 27.80493 13.020306 27.65625 12.3125 L 26.6875 12.3125 C 26.850965 13.022331 26.935916 13.751142 26.96875 14.5 L 24.9375 14.5 C 24.903702 14.022475 24.83962 13.554054 24.75 13.09375 L 23.78125 13.09375 C 23.87989 13.550043 23.937805 14.021354 23.96875 14.5 L 21.8125 14.5 C 21.563238 11.124193 18.875859 8.4367659 15.5 8.1875 L 15.5 6.03125 C 15.978646 6.0621953 16.449954 6.1201103 16.90625 6.21875 L 16.90625 5.25 C 16.445941 5.1603787 15.977525 5.096298 15.5 5.0625 L 15.5 3.03125 C 16.248859 3.0640842 16.977669 3.1490346 17.6875 3.3125 L 17.6875 2.34375 C 16.979691 2.1950703 16.246862 2.0992435 15.5 2.0625 L 15.5 0.875 A 0.50005 0.50005 0 0 0 14.9375 0.34375 z M 14.40625 9.15625 C 14.437335 9.1530933 14.468773 9.1589199 14.5 9.15625 L 14.5 12.0625 C 13.254561 12.278005 12.278003 13.254551 12.0625 14.5 L 9.15625 14.5 C 9.3963142 11.692375 11.611317 9.4400777 14.40625 9.15625 z M 15.5 9.15625 C 18.338877 9.3989804 20.601016 11.661149 20.84375 14.5 L 17.9375 14.5 C 17.721997 13.254551 16.745439 12.278005 15.5 12.0625 L 15.5 9.15625 z M 14.5 13.0625 L 14.5 14.5 L 13.0625 14.5 C 13.243296 13.792765 13.792738 13.24329 14.5 13.0625 z M 15.5 13.0625 C 16.207262 13.24329 16.756704 13.792765 16.9375 14.5 L 15.5 14.5 L 15.5 13.0625 z M 9.15625 15.5 L 12.0625 15.5 C 12.278003 16.745449 13.254561 17.721995 14.5 17.9375 L 14.5 20.84375 C 11.661123 20.601019 9.3989842 18.338931 9.15625 15.5 z M 13.0625 15.5 L 14.5 15.5 L 14.5 16.9375 C 13.792738 16.756708 13.243296 16.207284 13.0625 15.5 z M 15.5 15.5 L 16.9375 15.5 C 16.756704 16.207284 16.207262 16.756708 15.5 16.9375 L 15.5 15.5 z M 17.9375 15.5 L 20.84375 15.5 C 20.601016 18.338931 18.338877 20.601019 15.5 20.84375 L 15.5 17.9375 C 16.745439 17.721995 17.721997 16.745449 17.9375 15.5 z "
       transform="translate(0,1022.3622)"
       id="path3127" />
  </g>
</svg>
